<svg width="182" height="22" viewBox="0 0 182 22" fill="none" xmlns="http://www.w3.org/2000/svg">
<path d="M17.8066 0.55542L15.6503 8.43618H9.3902L11.5117 0.55542H5.6689L0 21.4446H5.84279L8.06862 13.2885H14.3288L12.1377 21.4446H17.9805L23.6494 0.55542H17.8066Z" fill="#BBBFCC"/>
<path d="M28.1687 13.1152H37.1068L38.3936 8.26289H29.4903L30.2902 5.37213H40.6194L41.941 0.554199H25.7342L20.0653 21.4434H36.446L37.7676 16.591H27.2297L28.1687 13.1152Z" fill="#BBBFCC"/>
<path d="M59.3322 7.39521C59.9234 5.19273 59.7147 3.47204 58.7409 2.30197C57.7671 1.1319 56.0978 0.512451 53.8372 0.512451H43.647L37.9781 21.4016H43.8209L45.8033 14.0715H50.2898C52.5156 14.0715 54.4632 13.4865 56.0282 12.3508C57.6628 11.2496 58.7409 9.56328 59.3322 7.39521ZM48.203 5.3648H51.6113C52.446 5.3648 53.0372 5.50245 53.3503 5.81218C53.6285 6.08749 53.698 6.53487 53.4894 7.22314C53.2807 7.94583 52.9329 8.46204 52.446 8.77176C51.9243 9.08149 51.2288 9.25356 50.3593 9.25356H47.1249L48.203 5.3648Z" fill="#BBBFCC"/>
<path d="M66.3221 0.554199L53.002 21.4434H58.9839L61.4531 17.2449H67.922L68.0959 21.4434H73.9387L71.9911 0.554199H66.3221ZM67.7828 12.6679H64.0615L67.5394 6.67986L67.7828 12.6679Z" fill="#BBBFCC"/>
<path d="M92.5126 0.553711L89.4869 11.7726L85.8351 0.553711H80.201L74.5321 21.4429H80.3749L83.4354 10.1896L87.0524 21.4429H92.7213L98.3902 0.553711H92.5126Z" fill="#F4D815"/>
<path d="M136.751 0.554199L129.517 12.7023L128.822 0.554199H121.97L116.302 21.4434H121.866L124.787 10.6719L125.135 21.4434H129.274L135.325 10.8439L132.474 21.4434H138.038L143.707 0.554199H136.751Z" fill="#F4D815"/>
<path d="M151.532 0.554199L138.211 21.4434H144.193L146.663 17.2449H153.131L153.305 21.4434H159.148L157.201 0.554199H151.532ZM152.992 12.6679H149.271L152.749 6.67986L152.992 12.6679Z" fill="#F4D815"/>
<path d="M180.988 3.34172C179.806 1.48337 177.685 0.554199 174.728 0.554199H165.408L159.739 21.4434H169.546C172.468 21.4434 174.972 20.5486 177.024 18.7591C179.076 16.9696 180.536 14.423 181.441 11.1192C182.31 7.7811 182.171 5.16565 180.988 3.34172ZM169.859 16.591H166.903L169.929 5.37213H173.059C174.172 5.37213 175.007 5.68186 175.459 6.26689C176.119 7.12723 176.189 8.71027 175.598 10.8783C174.554 14.7327 172.676 16.591 169.859 16.591Z" fill="#F4D815"/>
<path d="M108.755 0C110.32 0 111.746 0.27531 112.998 0.825931L105.451 6.53862L98.217 12.389L105.938 12.4234L99.9211 19.4438C97.7996 17.7575 96.5476 15.1765 96.5476 12.2169C96.5476 8.982 97.8692 5.88476 100.13 3.61345C102.286 1.37655 105.277 0 108.755 0Z" fill="#F4D815"/>
<path d="M113.798 1.17334C116.754 2.75638 118.528 5.71597 118.528 9.26059C118.528 12.4955 117.206 15.6272 114.946 17.8985C112.789 20.0665 109.798 21.4775 106.321 21.4775C104.199 21.4775 102.356 20.9613 100.826 20.0321L118.18 9.70797L108.651 9.22618L113.798 1.17334Z" fill="#F4D815"/>
</svg>
